<?xml version="1.0" standalone="no"?>
<!DOCTYPE svg PUBLIC "-//W3C//DTD SVG 20010904//EN"
 "http://www.w3.org/TR/2001/REC-SVG-20010904/DTD/svg10.dtd">
<svg version="1.0" xmlns="http://www.w3.org/2000/svg"
 width="842.000000pt" height="842.000000pt" viewBox="0 0 842.000000 842.000000"
 preserveAspectRatio="xMidYMid meet">
<metadata>
Created by potrace 1.14, written by Peter Selinger 2001-2017
</metadata>
<g transform="translate(0.000000,842.000000) scale(0.100000,-0.100000)"
fill="#000000" stroke="none">
<path d="M4340 6914 c-255 -38 -399 -104 -540 -247 -107 -111 -174 -233 -217
-396 -28 -108 -34 -246 -18 -436 15 -180 9 -695 -9 -712 -3 -3 -6 -1 -6 5 0
18 -290 398 -365 478 -163 174 -418 418 -569 545 -15 13 -42 37 -60 52 -52 46
-256 203 -332 256 -91 62 -212 121 -251 121 -51 0 -67 -20 -61 -78 5 -53 66
-169 126 -239 15 -17 55 -64 89 -105 81 -96 233 -258 508 -544 61 -62 185
-205 216 -249 34 -48 65 -102 140 -245 63 -122 174 -267 262 -343 29 -25 64
-56 78 -69 l27 -23 -37 -75 c-93 -189 -164 -371 -197 -505 -23 -92 -35 -153
-40 -189 -2 -24 -7 -53 -9 -65 -2 -11 -7 -62 -10 -113 -4 -51 -8 -115 -11
-143 -5 -69 -5 -399 1 -460 6 -64 14 -141 20 -185 2 -19 7 -57 11 -85 3 -27 7
-52 9 -55 2 -3 6 -26 10 -50 22 -157 130 -571 220 -842 51 -155 56 -182 58
-284 0 -62 -4 -83 -31 -142 -26 -55 -30 -75 -23 -94 12 -33 94 -104 126 -110
40 -8 83 40 76 84 0 4 7 11 17 16 12 7 45 0 107 -20 109 -36 198 -47 211 -27
9 15 11 20 13 44 2 30 46 45 142 50 158 9 209 20 209 45 0 13 -53 48 -117 76
-110 49 -228 111 -285 150 -71 50 -128 101 -128 116 0 6 2 9 5 6 3 -3 36 1 73
9 82 17 234 40 322 48 36 4 76 9 90 12 14 3 125 7 248 9 l222 5 11 -28 c49
-134 200 -343 247 -343 12 0 34 12 49 26 51 47 110 83 154 93 24 5 45 8 48 6
4 -1 31 -6 61 -9 30 -4 80 -10 110 -14 30 -4 62 -7 70 -6 8 0 23 2 33 2 24 3
21 22 -9 53 -17 18 -24 34 -20 45 5 14 15 16 59 9 101 -14 122 -12 125 10 4
27 -49 100 -85 119 -16 7 -80 31 -143 51 -115 38 -176 62 -238 93 -28 15 -32
21 -29 47 3 17 21 126 41 244 20 118 39 233 42 255 3 23 11 82 19 131 8 50 17
108 20 130 4 22 8 52 11 68 10 67 13 85 19 132 3 28 8 57 10 65 2 8 7 42 10
75 4 32 8 62 10 65 1 3 6 35 9 72 4 37 9 77 11 90 5 33 13 104 20 168 4 30 8
69 10 85 26 206 27 736 1 895 -2 14 -8 48 -12 75 -4 28 -9 57 -10 65 -2 8 -6
30 -9 48 -6 31 -1 39 59 100 73 76 102 107 236 253 137 149 370 381 480 479
146 129 468 455 544 550 126 160 166 288 96 312 -51 17 -341 -173 -670 -441
-58 -47 -112 -92 -120 -101 -8 -8 -44 -39 -80 -69 -71 -59 -310 -296 -350
-348 -120 -152 -306 -370 -312 -364 -4 3 -32 65 -62 137 -29 72 -68 158 -86
190 -30 56 -118 193 -130 204 -15 14 -121 152 -139 181 -12 19 -21 47 -21 62
0 25 38 93 73 129 18 18 107 137 107 143 0 2 14 24 30 49 62 91 175 160 368
225 120 41 230 92 265 125 70 64 -8 188 -144 229 -39 12 -56 11 -129 -4 -93
-19 -172 -29 -366 -44 l-82 -7 -23 34 c-13 18 -30 38 -39 44 -8 7 -26 22 -40
34 -93 82 -246 111 -430 84z"/>
</g>
</svg>
